<?xml version="1.0" encoding="UTF-8"?>
<!DOCTYPE svg PUBLIC "-//W3C//DTD SVG 1.1//EN"
    "http://www.w3.org/Graphics/SVG/1.1/DTD/svg11.dtd"><svg xmlns="http://www.w3.org/2000/svg" viewBox="0.0 0.0 400.0 1377.7777777777778" height="1377.7778" font-size="1" stroke-opacity="1" width="400.0000" xmlns:xlink="http://www.w3.org/1999/xlink" stroke="rgb(0,0,0)" version="1.1"><defs></defs><g stroke-linecap="butt" fill="rgb(0,0,0)" stroke-miterlimit="10.0" stroke-width="0.0" fill-opacity="1.0" stroke-opacity="1.0" stroke-linejoin="miter" stroke="rgb(0,0,0)"><path d="M 349.4949,1315.1515 l -0.0000,-121.2121 h -16.1616 l -0.0000,121.2121 Z"/></g><g stroke-linecap="butt" fill="rgb(148,210,189)" stroke-miterlimit="10.0" stroke-width="1.484737163421339" fill-opacity="1.0" stroke-opacity="1.0" stroke-linejoin="miter" stroke="rgb(0,0,0)"><path d="M 381.8182,1315.1515 l -0.0000,-20.2020 h -80.8081 l -0.0000,20.2020 Z"/></g><g stroke-linecap="butt" fill="rgb(10,147,150)" stroke-miterlimit="10.0" stroke-width="1.484737163421339" fill-opacity="1.0" stroke-opacity="1.0" stroke-linejoin="miter" stroke="rgb(0,0,0)"><path d="M 371.7172,1294.9495 l -0.0000,-20.2020 h -60.6061 l -0.0000,20.2020 Z"/></g><g stroke-linecap="butt" fill="rgb(0,95,115)" stroke-miterlimit="10.0" stroke-width="1.484737163421339" fill-opacity="1.0" stroke-opacity="1.0" stroke-linejoin="miter" stroke="rgb(0,0,0)"><path d="M 361.6162,1274.7475 l -0.0000,-20.2020 h -40.4040 l -0.0000,20.2020 Z"/></g><g stroke-linecap="butt" fill="rgb(0,0,0)" stroke-miterlimit="10.0" stroke-width="0.0" fill-opacity="1.0" stroke-opacity="1.0" stroke-linejoin="miter" stroke="rgb(0,0,0)"><path d="M 208.0808,1315.1515 l -0.0000,-121.2121 h -16.1616 l -0.0000,121.2121 Z"/></g><g stroke-linecap="butt" fill="rgb(0,0,0)" stroke-miterlimit="10.0" stroke-width="0.0" fill-opacity="1.0" stroke-opacity="1.0" stroke-linejoin="miter" stroke="rgb(0,0,0)"><path d="M 66.6667,1315.1515 l -0.0000,-121.2121 h -16.1616 l -0.0000,121.2121 Z"/></g><g stroke-linecap="butt" fill="rgb(0,0,0)" stroke-miterlimit="10.0" stroke-width="0.0" fill-opacity="1.0" stroke-opacity="1.0" stroke-linejoin="miter" stroke="rgb(0,0,0)"><path d="M 349.4949,1153.5354 l -0.0000,-121.2121 h -16.1616 l -0.0000,121.2121 Z"/></g><g stroke-linecap="butt" fill="rgb(148,210,189)" stroke-miterlimit="10.0" stroke-width="1.484737163421339" fill-opacity="1.0" stroke-opacity="1.0" stroke-linejoin="miter" stroke="rgb(0,0,0)"><path d="M 381.8182,1153.5354 l -0.0000,-20.2020 h -80.8081 l -0.0000,20.2020 Z"/></g><g stroke-linecap="butt" fill="rgb(10,147,150)" stroke-miterlimit="10.0" stroke-width="1.484737163421339" fill-opacity="1.0" stroke-opacity="1.0" stroke-linejoin="miter" stroke="rgb(0,0,0)"><path d="M 371.7172,1133.3333 l -0.0000,-20.2020 h -60.6061 l -0.0000,20.2020 Z"/></g><g stroke-linecap="butt" fill="rgb(0,0,0)" stroke-miterlimit="10.0" stroke-width="0.0" fill-opacity="1.0" stroke-opacity="1.0" stroke-linejoin="miter" stroke="rgb(0,0,0)"><path d="M 208.0808,1153.5354 l -0.0000,-121.2121 h -16.1616 l -0.0000,121.2121 Z"/></g><g stroke-linecap="butt" fill="rgb(0,0,0)" stroke-miterlimit="10.0" stroke-width="0.0" fill-opacity="1.0" stroke-opacity="1.0" stroke-linejoin="miter" stroke="rgb(0,0,0)"><path d="M 66.6667,1153.5354 l -0.0000,-121.2121 h -16.1616 l -0.0000,121.2121 Z"/></g><g stroke-linecap="butt" fill="rgb(0,95,115)" stroke-miterlimit="10.0" stroke-width="1.484737163421339" fill-opacity="1.0" stroke-opacity="1.0" stroke-linejoin="miter" stroke="rgb(0,0,0)"><path d="M 78.7879,1153.5354 l -0.0000,-20.2020 h -40.4040 l -0.0000,20.2020 Z"/></g><g stroke-linecap="butt" fill="rgb(0,0,0)" stroke-miterlimit="10.0" stroke-width="0.0" fill-opacity="1.0" stroke-opacity="1.0" stroke-linejoin="miter" stroke="rgb(0,0,0)"><path d="M 349.4949,991.9192 l -0.0000,-121.2121 h -16.1616 l -0.0000,121.2121 Z"/></g><g stroke-linecap="butt" fill="rgb(148,210,189)" stroke-miterlimit="10.0" stroke-width="1.484737163421339" fill-opacity="1.0" stroke-opacity="1.0" stroke-linejoin="miter" stroke="rgb(0,0,0)"><path d="M 381.8182,991.9192 l -0.0000,-20.2020 h -80.8081 l -0.0000,20.2020 Z"/></g><g stroke-linecap="butt" fill="rgb(0,0,0)" stroke-miterlimit="10.0" stroke-width="0.0" fill-opacity="1.0" stroke-opacity="1.0" stroke-linejoin="miter" stroke="rgb(0,0,0)"><path d="M 208.0808,991.9192 l -0.0000,-121.2121 h -16.1616 l -0.0000,121.2121 Z"/></g><g stroke-linecap="butt" fill="rgb(10,147,150)" stroke-miterlimit="10.0" stroke-width="1.484737163421339" fill-opacity="1.0" stroke-opacity="1.0" stroke-linejoin="miter" stroke="rgb(0,0,0)"><path d="M 230.3030,991.9192 l -0.0000,-20.2020 h -60.6061 l -0.0000,20.2020 Z"/></g><g stroke-linecap="butt" fill="rgb(0,0,0)" stroke-miterlimit="10.0" stroke-width="0.0" fill-opacity="1.0" stroke-opacity="1.0" stroke-linejoin="miter" stroke="rgb(0,0,0)"><path d="M 66.6667,991.9192 l -0.0000,-121.2121 h -16.1616 l -0.0000,121.2121 Z"/></g><g stroke-linecap="butt" fill="rgb(0,95,115)" stroke-miterlimit="10.0" stroke-width="1.484737163421339" fill-opacity="1.0" stroke-opacity="1.0" stroke-linejoin="miter" stroke="rgb(0,0,0)"><path d="M 78.7879,991.9192 l -0.0000,-20.2020 h -40.4040 l -0.0000,20.2020 Z"/></g><g stroke-linecap="butt" fill="rgb(0,0,0)" stroke-miterlimit="10.0" stroke-width="0.0" fill-opacity="1.0" stroke-opacity="1.0" stroke-linejoin="miter" stroke="rgb(0,0,0)"><path d="M 349.4949,830.3030 l -0.0000,-121.2121 h -16.1616 l -0.0000,121.2121 Z"/></g><g stroke-linecap="butt" fill="rgb(148,210,189)" stroke-miterlimit="10.0" stroke-width="1.484737163421339" fill-opacity="1.0" stroke-opacity="1.0" stroke-linejoin="miter" stroke="rgb(0,0,0)"><path d="M 381.8182,830.3030 l -0.0000,-20.2020 h -80.8081 l -0.0000,20.2020 Z"/></g><g stroke-linecap="butt" fill="rgb(0,0,0)" stroke-miterlimit="10.0" stroke-width="0.0" fill-opacity="1.0" stroke-opacity="1.0" stroke-linejoin="miter" stroke="rgb(0,0,0)"><path d="M 208.0808,830.3030 l -0.0000,-121.2121 h -16.1616 l -0.0000,121.2121 Z"/></g><g stroke-linecap="butt" fill="rgb(10,147,150)" stroke-miterlimit="10.0" stroke-width="1.484737163421339" fill-opacity="1.0" stroke-opacity="1.0" stroke-linejoin="miter" stroke="rgb(0,0,0)"><path d="M 230.3030,830.3030 l -0.0000,-20.2020 h -60.6061 l -0.0000,20.2020 Z"/></g><g stroke-linecap="butt" fill="rgb(0,95,115)" stroke-miterlimit="10.0" stroke-width="1.484737163421339" fill-opacity="1.0" stroke-opacity="1.0" stroke-linejoin="miter" stroke="rgb(0,0,0)"><path d="M 220.2020,810.1010 l -0.0000,-20.2020 h -40.4040 l -0.0000,20.2020 Z"/></g><g stroke-linecap="butt" fill="rgb(0,0,0)" stroke-miterlimit="10.0" stroke-width="0.0" fill-opacity="1.0" stroke-opacity="1.0" stroke-linejoin="miter" stroke="rgb(0,0,0)"><path d="M 66.6667,830.3030 l -0.0000,-121.2121 h -16.1616 l -0.0000,121.2121 Z"/></g><g stroke-linecap="butt" fill="rgb(0,0,0)" stroke-miterlimit="10.0" stroke-width="0.0" fill-opacity="1.0" stroke-opacity="1.0" stroke-linejoin="miter" stroke="rgb(0,0,0)"><path d="M 349.4949,668.6869 l -0.0000,-121.2121 h -16.1616 l -0.0000,121.2121 Z"/></g><g stroke-linecap="butt" fill="rgb(0,0,0)" stroke-miterlimit="10.0" stroke-width="0.0" fill-opacity="1.0" stroke-opacity="1.0" stroke-linejoin="miter" stroke="rgb(0,0,0)"><path d="M 208.0808,668.6869 l -0.0000,-121.2121 h -16.1616 l -0.0000,121.2121 Z"/></g><g stroke-linecap="butt" fill="rgb(10,147,150)" stroke-miterlimit="10.0" stroke-width="1.484737163421339" fill-opacity="1.0" stroke-opacity="1.0" stroke-linejoin="miter" stroke="rgb(0,0,0)"><path d="M 230.3030,668.6869 l -0.0000,-20.2020 h -60.6061 l -0.0000,20.2020 Z"/></g><g stroke-linecap="butt" fill="rgb(0,95,115)" stroke-miterlimit="10.0" stroke-width="1.484737163421339" fill-opacity="1.0" stroke-opacity="1.0" stroke-linejoin="miter" stroke="rgb(0,0,0)"><path d="M 220.2020,648.4848 l -0.0000,-20.2020 h -40.4040 l -0.0000,20.2020 Z"/></g><g stroke-linecap="butt" fill="rgb(0,0,0)" stroke-miterlimit="10.0" stroke-width="0.0" fill-opacity="1.0" stroke-opacity="1.0" stroke-linejoin="miter" stroke="rgb(0,0,0)"><path d="M 66.6667,668.6869 l -0.0000,-121.2121 h -16.1616 l -0.0000,121.2121 Z"/></g><g stroke-linecap="butt" fill="rgb(148,210,189)" stroke-miterlimit="10.0" stroke-width="1.484737163421339" fill-opacity="1.0" stroke-opacity="1.0" stroke-linejoin="miter" stroke="rgb(0,0,0)"><path d="M 98.9899,668.6869 l -0.0000,-20.2020 h -80.8081 l -0.0000,20.2020 Z"/></g><g stroke-linecap="butt" fill="rgb(0,0,0)" stroke-miterlimit="10.0" stroke-width="0.0" fill-opacity="1.0" stroke-opacity="1.0" stroke-linejoin="miter" stroke="rgb(0,0,0)"><path d="M 349.4949,507.0707 l -0.0000,-121.2121 h -16.1616 l -0.0000,121.2121 Z"/></g><g stroke-linecap="butt" fill="rgb(0,95,115)" stroke-miterlimit="10.0" stroke-width="1.484737163421339" fill-opacity="1.0" stroke-opacity="1.0" stroke-linejoin="miter" stroke="rgb(0,0,0)"><path d="M 361.6162,507.0707 l -0.0000,-20.2020 h -40.4040 l -0.0000,20.2020 Z"/></g><g stroke-linecap="butt" fill="rgb(0,0,0)" stroke-miterlimit="10.0" stroke-width="0.0" fill-opacity="1.0" stroke-opacity="1.0" stroke-linejoin="miter" stroke="rgb(0,0,0)"><path d="M 208.0808,507.0707 l -0.0000,-121.2121 h -16.1616 l -0.0000,121.2121 Z"/></g><g stroke-linecap="butt" fill="rgb(10,147,150)" stroke-miterlimit="10.0" stroke-width="1.484737163421339" fill-opacity="1.0" stroke-opacity="1.0" stroke-linejoin="miter" stroke="rgb(0,0,0)"><path d="M 230.3030,507.0707 l -0.0000,-20.2020 h -60.6061 l -0.0000,20.2020 Z"/></g><g stroke-linecap="butt" fill="rgb(0,0,0)" stroke-miterlimit="10.0" stroke-width="0.0" fill-opacity="1.0" stroke-opacity="1.0" stroke-linejoin="miter" stroke="rgb(0,0,0)"><path d="M 66.6667,507.0707 l -0.0000,-121.2121 h -16.1616 l -0.0000,121.2121 Z"/></g><g stroke-linecap="butt" fill="rgb(148,210,189)" stroke-miterlimit="10.0" stroke-width="1.484737163421339" fill-opacity="1.0" stroke-opacity="1.0" stroke-linejoin="miter" stroke="rgb(0,0,0)"><path d="M 98.9899,507.0707 l -0.0000,-20.2020 h -80.8081 l -0.0000,20.2020 Z"/></g><g stroke-linecap="butt" fill="rgb(0,0,0)" stroke-miterlimit="10.0" stroke-width="0.0" fill-opacity="1.0" stroke-opacity="1.0" stroke-linejoin="miter" stroke="rgb(0,0,0)"><path d="M 349.4949,345.4545 l -0.0000,-121.2121 h -16.1616 l -0.0000,121.2121 Z"/></g><g stroke-linecap="butt" fill="rgb(0,95,115)" stroke-miterlimit="10.0" stroke-width="1.484737163421339" fill-opacity="1.0" stroke-opacity="1.0" stroke-linejoin="miter" stroke="rgb(0,0,0)"><path d="M 361.6162,345.4545 l -0.0000,-20.2020 h -40.4040 l -0.0000,20.2020 Z"/></g><g stroke-linecap="butt" fill="rgb(0,0,0)" stroke-miterlimit="10.0" stroke-width="0.0" fill-opacity="1.0" stroke-opacity="1.0" stroke-linejoin="miter" stroke="rgb(0,0,0)"><path d="M 208.0808,345.4545 l -0.0000,-121.2121 h -16.1616 l -0.0000,121.2121 Z"/></g><g stroke-linecap="butt" fill="rgb(0,0,0)" stroke-miterlimit="10.0" stroke-width="0.0" fill-opacity="1.0" stroke-opacity="1.0" stroke-linejoin="miter" stroke="rgb(0,0,0)"><path d="M 66.6667,345.4545 l -0.0000,-121.2121 h -16.1616 l -0.0000,121.2121 Z"/></g><g stroke-linecap="butt" fill="rgb(148,210,189)" stroke-miterlimit="10.0" stroke-width="1.484737163421339" fill-opacity="1.0" stroke-opacity="1.0" stroke-linejoin="miter" stroke="rgb(0,0,0)"><path d="M 98.9899,345.4545 l -0.0000,-20.2020 h -80.8081 l -0.0000,20.2020 Z"/></g><g stroke-linecap="butt" fill="rgb(10,147,150)" stroke-miterlimit="10.0" stroke-width="1.484737163421339" fill-opacity="1.0" stroke-opacity="1.0" stroke-linejoin="miter" stroke="rgb(0,0,0)"><path d="M 88.8889,325.2525 l -0.0000,-20.2020 h -60.6061 l -0.0000,20.2020 Z"/></g><g stroke-linecap="butt" fill="rgb(0,0,0)" stroke-miterlimit="10.0" stroke-width="0.0" fill-opacity="1.0" stroke-opacity="1.0" stroke-linejoin="miter" stroke="rgb(0,0,0)"><path d="M 349.4949,183.8384 l -0.0000,-121.2121 h -16.1616 l -0.0000,121.2121 Z"/></g><g stroke-linecap="butt" fill="rgb(0,0,0)" stroke-miterlimit="10.0" stroke-width="0.0" fill-opacity="1.0" stroke-opacity="1.0" stroke-linejoin="miter" stroke="rgb(0,0,0)"><path d="M 208.0808,183.8384 l -0.0000,-121.2121 h -16.1616 l -0.0000,121.2121 Z"/></g><g stroke-linecap="butt" fill="rgb(0,0,0)" stroke-miterlimit="10.0" stroke-width="0.0" fill-opacity="1.0" stroke-opacity="1.0" stroke-linejoin="miter" stroke="rgb(0,0,0)"><path d="M 66.6667,183.8384 l -0.0000,-121.2121 h -16.1616 l -0.0000,121.2121 Z"/></g><g stroke-linecap="butt" fill="rgb(148,210,189)" stroke-miterlimit="10.0" stroke-width="1.484737163421339" fill-opacity="1.0" stroke-opacity="1.0" stroke-linejoin="miter" stroke="rgb(0,0,0)"><path d="M 98.9899,183.8384 l -0.0000,-20.2020 h -80.8081 l -0.0000,20.2020 Z"/></g><g stroke-linecap="butt" fill="rgb(10,147,150)" stroke-miterlimit="10.0" stroke-width="1.484737163421339" fill-opacity="1.0" stroke-opacity="1.0" stroke-linejoin="miter" stroke="rgb(0,0,0)"><path d="M 88.8889,163.6364 l -0.0000,-20.2020 h -60.6061 l -0.0000,20.2020 Z"/></g><g stroke-linecap="butt" fill="rgb(0,95,115)" stroke-miterlimit="10.0" stroke-width="1.484737163421339" fill-opacity="1.0" stroke-opacity="1.0" stroke-linejoin="miter" stroke="rgb(0,0,0)"><path d="M 78.7879,143.4343 l -0.0000,-20.2020 h -40.4040 l -0.0000,20.2020 Z"/></g></svg>